<svg width="178" height="72" viewBox="0 0 178 72" fill="none" xmlns="http://www.w3.org/2000/svg">
<path d="M168.939 19.2768V23.6648H168.337V19.2768H166.616V18.7812H170.659V19.2768H168.939Z" fill="#343434"/>
<path d="M176.169 23.6648H175.566V21.1516C175.566 20.5417 175.566 19.8628 175.58 19.3315C175.42 19.8628 175.197 20.5489 174.992 21.1444L174.138 23.6648H173.382L172.516 21.1301C172.321 20.5489 172.097 19.8699 171.942 19.3458C171.956 19.8771 171.956 20.5489 171.956 21.1516V23.6648H171.354V18.7812H172.347L173.773 23.1479L175.192 18.7812H176.164V23.6648H176.169Z" fill="#343434"/>
<path d="M96.1867 45.3599C93.4543 45.3599 91.2114 44.4571 89.4605 42.6466C87.7095 40.8384 86.834 38.6968 86.834 36.2217C86.834 33.4797 87.7212 31.288 89.4958 29.6515C91.2703 28.0125 93.4284 27.1811 95.9702 27.1572C98.1048 27.1334 99.9146 27.6242 101.402 28.6319C102.889 29.6395 103.633 30.9426 103.633 32.5459C103.633 33.1533 103.424 33.6631 103.005 34.0753C102.586 34.4874 101.92 34.6827 101.009 34.6565C100.195 34.6089 99.491 34.2801 98.9049 33.6727C98.3166 33.0652 97.8906 32.4101 97.627 31.7073C97.3634 31.0046 97.0033 30.3661 96.5491 29.7968C96.0925 29.2274 95.5771 28.9415 95.0029 28.9415C94.2592 28.9654 93.6544 29.3656 93.186 30.1422C92.7177 30.9188 92.4847 31.8788 92.4847 33.0176C92.4847 35.3974 93.0189 37.3008 94.085 38.7325C95.1512 40.1643 96.5727 40.8813 98.3472 40.8813C99.9522 40.8813 101.284 40.1786 102.339 38.7707C102.579 38.48 102.866 38.3776 103.202 38.461C103.539 38.5467 103.706 38.7826 103.706 39.1709C103.657 40.8694 102.974 42.3273 101.656 43.5399C100.334 44.7525 98.5119 45.3599 96.1867 45.3599ZM125.212 40.9909C125.259 41.5984 125.487 42.1987 125.895 42.7919C126.302 43.3874 126.506 43.8425 126.506 44.1569V44.3022C126.506 44.7644 126.219 44.9931 125.643 44.9931H118.486C117.909 44.9931 117.622 44.762 117.622 44.3022V44.1569C117.622 43.8663 117.843 43.416 118.288 42.8086C118.731 42.2035 118.94 41.596 118.917 40.9885L118.556 34.2158C118.46 32.5411 118.22 31.3452 117.836 30.6306C117.453 29.9159 116.853 29.5562 116.038 29.5562C115.271 29.5562 114.69 29.873 114.294 30.5019C113.899 31.1332 113.701 31.9956 113.701 33.0866V41.0243C113.701 41.6317 113.972 42.2321 114.511 42.8276C115.05 43.4232 115.32 43.8639 115.32 44.1569V44.3022C115.32 44.7644 115.033 44.9931 114.457 44.9931H106.653C106.102 44.9931 105.827 44.762 105.827 44.3022V44.1569C105.827 43.8663 106.09 43.4232 106.617 42.8276C107.144 42.2321 107.408 41.6317 107.408 41.0243V24.1318C107.408 23.5005 107.114 22.9312 106.528 22.4214C105.939 21.9116 105.648 21.5113 105.648 21.2207V21.1111C105.648 20.6752 105.923 20.3345 106.474 20.0915L112.157 17.5425C112.564 17.3496 112.894 17.3234 113.146 17.4687C113.398 17.614 113.522 17.8927 113.522 18.3072V28.8653C114.6 27.7242 116.064 27.1549 117.909 27.1549C119.684 27.1549 121.218 27.7314 122.513 28.8844C123.807 30.0374 124.551 31.8884 124.744 34.4374L125.212 40.9909ZM143.339 39.2423C143.602 38.9755 143.896 38.8969 144.219 39.0065C144.543 39.1161 144.692 39.3638 144.668 39.7521C144.619 40.9671 143.925 42.2035 142.583 43.4661C141.239 44.7286 139.502 45.3599 137.368 45.3599C134.753 45.3599 132.621 44.5095 130.966 42.8109C129.312 41.1124 128.483 38.8922 128.483 36.1478C128.483 33.5274 129.352 31.3738 131.091 29.6848C132.83 27.9982 134.908 27.1549 137.332 27.1549C139.514 27.1549 141.204 27.6647 142.404 28.6843C143.602 29.7039 144.202 30.8569 144.202 32.1433C144.202 33.1629 143.734 33.9157 142.8 34.3993L135.643 38.4776C136.626 40.0547 137.991 40.8432 139.742 40.8432C140.486 40.8432 141.187 40.6931 141.846 40.3882C142.505 40.0857 143.002 39.7045 143.339 39.2423ZM136.685 28.9392C135.965 28.9392 135.384 29.3036 134.941 30.0302C134.497 30.7592 134.275 31.6692 134.275 32.7603C134.275 34.2158 134.454 35.4903 134.814 36.5838L138.159 34.5446C138.782 34.1086 139.093 33.4892 139.093 32.6888C139.093 31.8884 138.895 31.0617 138.5 30.2137C138.107 29.3632 137.5 28.9392 136.685 28.9392ZM155.388 20.1296C154.574 20.1296 154.11 20.6394 154.004 21.659C153.899 22.6786 153.993 23.7411 154.292 24.8441C154.59 25.9494 154.932 26.8404 155.318 27.5193H159.382C159.622 27.5193 159.82 27.598 159.975 27.7552C160.131 27.9124 160.208 28.1125 160.208 28.3555V29.1559C160.208 29.3989 160.131 29.599 159.975 29.7563C159.82 29.9135 159.622 29.9921 159.382 29.9921H155.461V40.9861C155.461 41.6174 155.786 42.2297 156.433 42.8252C157.08 43.4208 157.405 43.8615 157.405 44.1545V44.2998C157.405 44.762 157.13 44.9907 156.579 44.9907H148.667C148.114 44.9907 147.841 44.7596 147.841 44.2998V44.1545C147.841 43.8639 148.081 43.4208 148.561 42.8252C149.041 42.2297 149.281 41.6174 149.281 40.9861V29.9921H146.944C146.704 29.9921 146.506 29.9135 146.351 29.7563C146.196 29.599 146.118 29.3989 146.118 29.1559V28.3555C146.118 28.1125 146.196 27.9124 146.351 27.7552C146.506 27.598 146.704 27.5193 146.944 27.5193H149.281V25.6993C149.281 23.5386 149.905 21.7805 151.152 20.4203C152.399 19.0624 154.256 18.3811 156.727 18.3811C158.309 18.3811 159.665 18.8432 160.792 19.7652C161.919 20.6871 162.482 21.7686 162.482 23.005C162.482 23.5648 162.277 24.0675 161.87 24.5153C161.463 24.9656 160.886 25.1895 160.142 25.1895C159.352 25.1895 158.728 25.0132 158.271 24.6607C157.815 24.3081 157.509 23.884 157.353 23.3862C157.198 22.8883 157.071 22.3975 156.977 21.9116C156.88 21.4256 156.713 21.0087 156.473 20.6561C156.226 20.3059 155.868 20.1296 155.388 20.1296Z" fill="#343434"/>
<path d="M25.6911 16.7227C25.6911 16.7227 23.853 24.1981 18.0258 28.9173C12.1986 33.6366 4.58984 33.8128 4.58984 33.8128C4.58984 33.8128 6.42791 26.3374 12.2551 21.6158C18.0823 16.8989 25.6911 16.7227 25.6911 16.7227Z" fill="#36A34F"/>
<path d="M27.0684 21.1836C27.0684 21.1836 25.7458 21.2146 23.7783 21.5933C22.578 23.9494 20.7305 26.7342 18.0264 28.9259C14.6303 31.6774 10.6271 32.8852 7.87822 33.4116C6.49202 36.1298 5.96484 38.2762 5.96484 38.2762C5.96484 38.2762 13.5736 38.0999 19.4008 33.3807C25.2304 28.6614 27.0684 21.1836 27.0684 21.1836Z" fill="#6FBA6D"/>
<path d="M23.7823 21.5879C21.0334 22.1167 17.0325 23.3222 13.6341 26.0737C11.8337 27.5316 10.4146 29.2539 9.31079 30.9358C9.04485 31.4027 8.7695 31.8458 8.49649 32.2651C8.27527 32.6534 8.07051 33.0346 7.87988 33.4038C10.6287 32.875 14.6296 31.6695 18.0281 28.918C20.7345 26.7288 22.582 23.9415 23.7823 21.5879Z" fill="#188737"/>
<path d="M9.84037 9.90332C9.84037 9.90332 4.17321 15.0466 2.77995 22.4696C1.38669 29.8903 4.79452 36.7798 4.79452 36.7798C4.79452 36.7798 6.14071 35.5577 7.68459 33.4446C5.8277 33.7877 4.59212 33.8162 4.59212 33.8162C4.59212 33.8162 6.40901 26.4265 12.1585 21.7026C12.5139 15.3086 9.84037 9.90332 9.84037 9.90332Z" fill="#A1CD89"/>
<path d="M12.1553 21.7021C6.4081 26.4261 4.58887 33.8158 4.58887 33.8158C4.58887 33.8158 5.82444 33.7873 7.68133 33.4442C7.94963 33.0773 8.22263 32.6843 8.49563 32.2674C8.7451 31.8314 9.01575 31.386 9.30993 30.9381C10.3949 29.0418 11.3763 26.7644 11.854 24.2154C12.0117 23.3673 12.1082 22.5264 12.1553 21.7021Z" fill="#249338"/>
<path d="M9.31039 30.9385C9.01621 31.3863 8.74556 31.8318 8.49609 32.2678C8.7691 31.8509 9.0421 31.4054 9.31039 30.9385Z" fill="#157934"/>
<path d="M44.3392 1.80528C44.3392 1.80528 39.5899 7.8252 32.3482 9.65714C25.1066 11.4891 18.1191 8.43744 18.1191 8.43744C18.1191 8.43744 22.8684 2.41751 30.1101 0.58557C37.3517 -1.24637 44.3392 1.80528 44.3392 1.80528Z" fill="#36A34F"/>
<path d="M47.8106 18.084C46.5868 18.084 45.5913 18.4294 44.8264 19.1203C44.118 19.7587 43.7367 20.5448 43.6826 21.4811C45.4618 21.169 46.9045 21.1213 47.6317 21.1213C47.9589 21.1213 48.1401 21.1309 48.1401 21.1309C48.1401 21.1309 47.5611 22.8985 46.2291 25.133C46.7068 25.2879 47.234 25.3665 47.813 25.3665C49.0109 25.3665 49.9946 25.0211 50.7619 24.3278C51.5291 23.637 51.9127 22.7699 51.9127 21.724C51.9127 20.6806 51.5291 19.8135 50.7619 19.1203C49.9923 18.4294 49.0085 18.084 47.8106 18.084Z" fill="#36A34F"/>
<path d="M50.9772 34.1436C48.7132 34.9869 46.442 35.2966 44.5381 35.3656V37.493C47.0069 37.9337 49.2027 38.9176 50.9772 39.9705V34.1436Z" fill="#36A34F"/>
<path d="M50.9767 40.0314C49.5975 41.2035 48.1101 42.0944 46.7004 42.7686C48.6562 43.6095 50.0988 44.5386 50.746 44.9888H51.6968C52.297 44.9888 52.5959 44.7578 52.5959 44.298V44.1527C52.5959 43.862 52.3252 43.4118 51.7863 42.8043C51.2473 42.1992 50.9767 41.5918 50.9767 40.9843V40.0314ZM39.1081 39.1523C38.9881 39.2619 38.8681 39.3691 38.7457 39.4763C37.929 40.1839 37.07 40.7866 36.1992 41.3035C37.0982 41.1558 38.0349 41.0677 38.9975 41.0677C39.0352 41.0677 39.0728 41.0677 39.1081 41.0677C39.1081 41.0534 39.1081 41.0367 39.1081 41.0224V39.1523Z" fill="#36A34F"/>
<path d="M44.539 37.4893V40.984C44.539 41.2913 44.4778 41.5986 44.3555 41.9059C45.198 42.1632 45.9841 42.461 46.7019 42.7683C48.1116 42.0941 49.599 41.2032 50.9781 40.0311V39.9668C49.2036 38.9138 47.0078 37.93 44.539 37.4893Z" fill="#12692F"/>
<path d="M34.7136 42.1006C33.624 42.6271 32.5531 43.0273 31.567 43.3322C31.3434 43.68 31.2305 43.954 31.2305 44.1565V44.3018C31.2305 44.7639 31.5058 44.9926 32.0565 44.9926H39.8254C39.9265 44.9926 40.0183 44.9855 40.1007 44.9712C37.9543 44.2041 36.1139 43.1059 34.7136 42.1006Z" fill="#6FBA6D"/>
<path d="M46.703 42.7707C45.3874 43.3996 44.1354 43.8403 43.1022 44.1429C43.1022 44.1452 43.1022 44.15 43.1022 44.1524V44.2977C43.1022 44.7599 43.3893 44.9885 43.9659 44.9885H50.7487C50.0991 44.5407 48.6564 43.6116 46.703 42.7707ZM38.9978 41.0674C38.0352 41.0674 37.0985 41.1531 36.1995 41.3032C35.7053 41.5962 35.2087 41.8607 34.7168 42.0989C36.1171 43.1042 37.9575 44.2024 40.1039 44.9695C40.3134 44.9338 40.4663 44.8551 40.5628 44.7289C40.4663 44.7432 40.4146 44.7503 40.4146 44.7503C40.4146 44.7503 40.464 44.3978 40.5958 43.7974C40.4757 43.5378 40.2451 43.2138 39.8991 42.8255C39.3861 42.2466 39.1225 41.6606 39.1084 41.0698C39.0731 41.0674 39.0354 41.0674 38.9978 41.0674ZM40.5981 43.7974C40.4663 44.3978 40.4169 44.7503 40.4169 44.7503C40.4169 44.7503 40.4687 44.7432 40.5652 44.7289C40.6499 44.6193 40.6946 44.4764 40.6946 44.2977V44.1524C40.6923 44.0523 40.6617 43.9332 40.5981 43.7974Z" fill="#188737"/>
<path d="M44.354 41.9082C44.234 42.2084 44.0551 42.5085 43.8198 42.8063C43.3467 43.4066 43.1067 43.8521 43.0996 44.1427C44.1328 43.8402 45.3825 43.3995 46.7004 42.7706C45.9826 42.4609 45.1942 42.1631 44.354 41.9082Z" fill="#155628"/>
<path d="M32.6358 40.4288V41.0243C32.6358 41.4841 32.5017 41.9391 32.2334 42.3917C32.8594 42.1535 33.5255 41.932 34.2268 41.739C33.5749 41.2483 33.0383 40.7932 32.6358 40.4288ZM39.1102 32.3506C36.8886 33.5917 34.5704 34.2492 32.6358 34.597V39.1686C33.8502 38.6373 36.2272 37.7416 39.1102 37.3866V32.3506Z" fill="#36A34F"/>
<path d="M39.1092 37.3779C36.2262 37.7329 33.8515 38.6286 32.6348 39.1599V40.4201C33.0396 40.7845 33.5762 41.2395 34.2257 41.7303C34.8564 41.5564 35.5178 41.4087 36.2003 41.2967C37.0687 40.7822 37.9301 40.1771 38.7467 39.4695C38.8691 39.3623 38.9915 39.2551 39.1092 39.1456V37.3779Z" fill="#12692F"/>
<path d="M34.2235 41.7344C33.5221 41.9273 32.8561 42.1489 32.2301 42.3871C32.143 42.5324 32.0442 42.6777 31.9312 42.8231C31.7876 43.0065 31.6653 43.1732 31.5664 43.3281C32.5525 43.0232 33.6233 42.623 34.713 42.0965C34.5435 41.975 34.3812 41.8535 34.2235 41.7344Z" fill="#188737"/>
<path d="M36.2002 41.3057C35.5176 41.4176 34.8587 41.5677 34.2256 41.7392C34.3833 41.8583 34.5457 41.9775 34.7151 42.0989C35.2093 41.8631 35.7059 41.5987 36.2002 41.3057Z" fill="#135728"/>
<path d="M39.1092 23.0859C38.8738 23.3956 38.6267 23.7006 38.3655 23.9983C36.6239 25.9875 34.5317 27.4026 32.6348 28.3864V33.7703C32.8654 33.544 33.1055 33.3248 33.3549 33.108C35.1812 31.5238 37.2311 30.459 39.1092 29.7443V25.8541C39.0362 25.8398 38.9985 25.8327 38.9985 25.8327C38.9985 25.8327 39.0362 25.7588 39.1092 25.623V23.0859Z" fill="#6FBA6D"/>
<path d="M39.1096 25.6246C39.0367 25.7604 38.999 25.8343 38.999 25.8343C38.999 25.8343 39.0367 25.8414 39.1096 25.8557V25.6246ZM47.6316 21.127C46.9067 21.127 45.4617 21.1746 43.6824 21.4867C43.6777 21.5653 43.6754 21.6463 43.6754 21.7297C43.6754 22.7731 44.059 23.6402 44.8262 24.3334C45.231 24.6979 45.697 24.9671 46.2289 25.1386C47.561 22.9041 48.1399 21.1365 48.1399 21.1365C48.1399 21.1365 47.9587 21.127 47.6316 21.127Z" fill="#188737"/>
<path d="M39.1092 29.7432C37.2311 30.4578 35.1812 31.5227 33.3549 33.1069C33.1055 33.3213 32.8678 33.5428 32.6348 33.7692V34.5982C34.5693 34.2527 36.8875 33.5953 39.1092 32.3517V29.7432Z" fill="#188737"/>
<path d="M38.185 17.4336C37.9708 17.4336 37.726 17.4931 37.453 17.6123L32.0212 20.3066C31.4941 20.5972 31.2305 20.8759 31.2305 21.1427V21.2881C31.2305 21.531 31.4635 21.9503 31.9318 22.5435C32.4001 23.1391 32.6331 23.7513 32.6331 24.3826V27.3699C33.5298 26.3741 34.5771 25.4093 35.7844 24.5779C36.8623 23.8347 37.992 23.2486 39.1075 22.7889V18.377C39.1075 18.0125 38.9569 17.7409 38.658 17.5575C38.5215 17.4765 38.3638 17.4336 38.185 17.4336Z" fill="#36A34F"/>
<path d="M39.1092 22.791C37.9936 23.2508 36.8639 23.8368 35.7861 24.5801C34.5787 25.4115 33.5338 26.3763 32.6348 27.3721V28.3821C34.5317 27.3983 36.6215 25.9832 38.3655 23.994C38.6267 23.6963 38.8738 23.3913 39.1092 23.0816V22.791Z" fill="#188737"/>
<path d="M84.2438 31.2119C82.5587 33.0867 79.8451 35.5404 76.289 36.8721C75.6795 37.1008 75.0676 37.289 74.458 37.4391C75.4465 37.532 76.3008 37.6749 76.9645 37.8083L82.9493 34.3994C83.8837 33.9134 84.352 33.1606 84.352 32.1434C84.3544 31.8242 84.3167 31.5145 84.2438 31.2119Z" fill="#36A34F"/>
<path d="M77.4809 27.1533C75.0592 27.1533 72.9787 27.9966 71.2395 29.6833C71.0183 29.8977 70.8111 30.1216 70.6182 30.3503C71.4795 29.8381 72.4092 29.3759 73.407 29.0019C75.7158 28.1372 78.0598 27.8632 80.0979 27.8632C80.5216 27.8632 80.9311 27.8751 81.3265 27.8966C80.2839 27.4011 79.0012 27.1533 77.4809 27.1533Z" fill="#36A34F"/>
<path d="M63.4235 37.2715C61.4066 38.727 59.2014 39.618 57.2362 40.1611V40.983C57.2362 41.6143 56.9962 42.2265 56.5161 42.8221C56.036 43.4177 55.7959 43.8584 55.7959 44.1514V44.2967C55.7959 44.7589 56.0713 44.9876 56.6243 44.9876H56.8644C58.1305 43.4439 60.371 41.1021 63.4212 39.4489L63.4235 37.2715Z" fill="#A3CE94"/>
<path d="M63.4217 30.2719C61.3412 31.3677 59.1689 31.9394 57.2344 32.2229V38.9027C59.0607 36.3704 61.433 34.5813 63.4217 33.3998V30.2719ZM67.3402 27.5156H67.2625C66.2952 28.4161 65.1844 29.2713 63.93 29.9908H67.3402C67.5802 29.9908 67.7779 29.9122 67.9333 29.7549C68.0886 29.5977 68.1663 29.3976 68.1663 29.1546V28.3542C68.1663 28.1112 68.0886 27.9111 67.9333 27.7538C67.7779 27.5942 67.5802 27.5156 67.3402 27.5156Z" fill="#6FBA6D"/>
<path d="M63.4217 33.3984C61.4353 34.58 59.063 36.3691 57.2344 38.9014V40.164C59.1995 39.6209 61.4024 38.7299 63.4217 37.2743V33.3984Z" fill="#53B047"/>
<path d="M62.9274 26.8137C61.4306 27.6928 59.9079 28.3122 58.5405 28.7481C58.1428 29.1984 57.7074 29.6581 57.2344 30.1131V31.5949C57.6886 31.1732 58.1734 30.7683 58.6888 30.3871C60.5904 28.9816 62.6662 28.0858 64.5607 27.5189H63.2781C63.1557 27.3045 63.0404 27.0686 62.9274 26.8137ZM69.4254 20.415C69.3806 20.415 69.3359 20.415 69.2912 20.4174C68.451 21.8063 67.3825 23.2308 66.0364 24.4982C66.0975 24.553 66.1611 24.6078 66.227 24.6578C66.6812 25.0104 67.3049 25.1867 68.098 25.1867C68.8417 25.1867 69.4159 24.9627 69.8231 24.5125C70.2302 24.0646 70.435 23.5596 70.435 23.0022C70.435 22.0469 70.0984 21.1845 69.4254 20.415Z" fill="#36A34F"/>
<path d="M67.2639 27.5156H64.5598C62.6652 28.085 60.5895 28.9783 58.6878 30.3838C58.1724 30.765 57.6876 31.17 57.2334 31.5916V32.2206C59.168 31.9371 61.3402 31.3653 63.4207 30.2695V29.9884H63.9314C65.1881 29.2713 66.2966 28.4161 67.2639 27.5156Z" fill="#188737"/>
<path d="M50.1062 27.1475C49.892 27.1475 49.6426 27.2094 49.3578 27.3309L44.9262 29.5297C44.7073 30.2396 44.3684 31.2068 43.8789 32.305C44.319 32.8768 44.5379 33.4628 44.5379 34.0679V34.9993C45.018 34.3609 45.5522 33.7391 46.1453 33.1483C47.6492 31.6499 49.3507 30.5374 50.977 29.7155V28.098C50.977 27.7097 50.8334 27.4309 50.5463 27.2594C50.4192 27.1856 50.2733 27.1475 50.1062 27.1475Z" fill="#6FBA6D"/>
<path d="M50.9772 29.7139C49.3509 30.5357 47.6494 31.6482 46.1455 33.1467C45.5524 33.7375 45.0182 34.3616 44.5381 34.9977V35.3622C46.442 35.2931 48.7132 34.9834 50.9772 34.1401V29.7139Z" fill="#188737"/>
<path d="M44.9259 29.5273L43.9257 30.0228C43.375 30.2897 43.0996 30.5684 43.0996 30.8614V31.0067C43.0996 31.2259 43.3397 31.6309 43.8198 32.2264C43.841 32.2526 43.8598 32.2764 43.881 32.3027C44.3681 31.2068 44.707 30.2373 44.9259 29.5273Z" fill="#188737"/>
<path d="M58.5422 28.7451C58.135 28.8738 57.742 28.9881 57.3678 29.0858C57.2996 29.3597 57.2195 29.6623 57.123 29.9886H57.236V30.1101C57.7091 29.6551 58.1444 29.1954 58.5422 28.7451Z" fill="#188737"/>
<path d="M57.3678 29.0879C56.0122 29.4452 54.899 29.6144 54.2471 29.6906C54.2635 29.712 54.2847 29.7335 54.3036 29.7549C54.4589 29.9122 54.6566 29.9908 54.8966 29.9908H57.123C57.2195 29.6644 57.2995 29.3619 57.3678 29.0879Z" fill="#155628"/>
<path d="M84.0958 38.9531C83.8792 38.9531 83.6768 39.0484 83.4886 39.2366C83.152 39.6988 82.6554 40.0799 81.9965 40.3825C81.3375 40.6874 80.6362 40.8375 79.8925 40.8375C78.831 40.8375 77.9108 40.5468 77.1318 39.968C77.1201 39.9703 77.1083 39.9727 77.0989 39.9751C76.1175 41.1448 74.6254 42.7004 72.6885 44.0726C74.0582 44.9254 75.6703 45.3518 77.5202 45.3518C79.6548 45.3518 81.3916 44.7205 82.7354 43.4579C84.0793 42.1954 84.7736 40.959 84.8206 39.744C84.8442 39.3557 84.6935 39.108 84.3711 38.9984C84.277 38.9674 84.1852 38.9531 84.0958 38.9531Z" fill="#10672F"/>
<path d="M77.1163 39.9561C77.1112 39.9638 77.1037 39.9714 77.0986 39.9766C77.1112 39.974 77.1239 39.9714 77.1339 39.9689C77.1264 39.9663 77.1213 39.9612 77.1163 39.9561Z" fill="#18411E"/>
<path d="M74.471 31.9505C73.2801 32.122 72.1575 32.1815 71.169 32.1815C70.5477 32.1815 69.9805 32.1577 69.4816 32.1244C68.9215 33.306 68.6414 34.6376 68.6367 36.1194C70.0935 34.7591 72.061 33.2512 74.4474 32.1958C74.4545 32.1101 74.4616 32.0291 74.471 31.9505ZM82.5999 28.7178C81.7926 29.3062 80.9124 29.8493 79.9593 30.3139C79.6062 30.4854 79.2485 30.6426 78.8931 30.7856C78.9096 30.8284 78.9237 30.8737 78.9402 30.9166C79.9216 30.776 80.8795 30.7189 81.7903 30.7189C82.6187 30.7189 83.4071 30.7665 84.1367 30.8403C83.866 30.0804 83.3553 29.3705 82.5999 28.7178Z" fill="#6FBA6D"/>
<path d="M81.7875 30.7158C80.8767 30.7158 79.9189 30.773 78.9375 30.9135C79.1422 31.5163 79.2458 32.1047 79.2458 32.6812C79.2458 33.4816 78.9328 34.101 78.3114 34.5369L74.9672 36.5761C74.6071 35.4827 74.4282 34.2082 74.4282 32.7526C74.4282 32.5597 74.4353 32.3715 74.4494 32.188C72.0606 33.2434 70.0931 34.7537 68.6387 36.1116C68.6387 36.1211 68.6387 36.1283 68.6387 36.1378C68.6387 36.6476 68.6669 37.1407 68.7257 37.6148C69.9472 37.4051 71.1357 37.3242 72.2371 37.3242C73.0303 37.3242 73.7787 37.3646 74.4635 37.4313C75.0731 37.2789 75.685 37.0931 76.2945 36.8644C79.8506 35.5303 82.5642 33.079 84.2493 31.2042C84.2187 31.0803 84.1834 30.9588 84.141 30.8373C83.4044 30.7635 82.6159 30.7158 81.7875 30.7158Z" fill="#188737"/>
<path d="M80.1036 27.8652C78.0632 27.8652 75.7215 28.1392 73.4127 29.0039C72.4148 29.378 71.4852 29.8401 70.6239 30.3523C70.1626 30.9002 69.7837 31.491 69.4824 32.1247C69.9814 32.1604 70.5509 32.1819 71.1699 32.1819C72.1583 32.1819 73.2809 32.1223 74.4718 31.9508C74.5565 31.2099 74.7636 30.5691 75.0931 30.0283C75.5355 29.2993 76.1169 28.9372 76.837 28.9372C77.6513 28.9372 78.2585 29.3613 78.6539 30.2117C78.7433 30.4047 78.8233 30.5977 78.8939 30.7882C79.2517 30.6453 79.607 30.4881 79.9601 30.3166C80.9132 29.852 81.7934 29.3089 82.6007 28.7205C82.5865 28.7085 82.5701 28.6943 82.5559 28.6823C82.1935 28.3727 81.784 28.1106 81.3298 27.8962C80.9391 27.8748 80.5273 27.8652 80.1036 27.8652Z" fill="#188737"/>
<path d="M64.6802 18.3789C62.2091 18.3789 60.3522 19.0578 59.1048 20.4181C58.1846 21.421 57.6033 22.6455 57.3633 24.0844C57.4621 24.0844 57.5586 24.082 57.6551 24.082C57.6669 24.082 57.6786 24.082 57.6881 24.082C58.3211 23.6055 59.0013 23.1601 59.7262 22.7598C60.4604 22.3549 61.2089 22.0166 61.9573 21.7379C61.9596 21.7117 61.962 21.6831 61.9643 21.6569C62.0726 20.6373 62.5339 20.1275 63.3482 20.1275C63.8283 20.1275 64.1883 20.3038 64.426 20.6539C64.4919 20.7492 64.5508 20.8493 64.6049 20.9541C66.3465 20.5682 67.9774 20.4372 69.2883 20.4181C69.3072 20.3871 69.326 20.3562 69.3425 20.3276C69.1636 20.1322 68.9636 19.944 68.7423 19.763C67.6174 18.8411 66.2641 18.3789 64.6802 18.3789Z" fill="#6FBA6D"/>
<path d="M61.9577 21.7348C61.2093 22.0159 60.4632 22.3542 59.7266 22.7568C58.9994 23.157 58.3192 23.6049 57.6885 24.0789C60.009 24.0813 61.5905 24.4148 61.5905 24.4148C61.5905 24.4148 60.5644 26.454 58.5428 28.7457C59.9102 28.3122 61.4329 27.6928 62.9297 26.8114C62.6849 26.2539 62.459 25.5964 62.2542 24.8389C61.9624 23.7645 61.8635 22.7282 61.9577 21.7348ZM69.2935 20.415C67.9826 20.4341 66.3516 20.5651 64.6101 20.951C64.756 21.2345 64.8642 21.5537 64.9348 21.9063C65.0313 22.3923 65.1561 22.883 65.3114 23.3809C65.4432 23.805 65.6856 24.1766 66.0363 24.4958C67.3825 23.2285 68.4509 21.8039 69.2935 20.415Z" fill="#188737"/>
<path d="M57.6535 24.082C57.557 24.082 57.4605 24.082 57.3617 24.0844C57.3452 24.1773 57.3311 24.2702 57.3193 24.3655C57.4394 24.2702 57.5617 24.1749 57.6865 24.082C57.6747 24.082 57.6629 24.082 57.6535 24.082Z" fill="#31A936"/>
<path d="M57.6882 24.082C57.5634 24.1749 57.4411 24.2702 57.321 24.3655C57.2646 24.7896 57.2363 25.235 57.2363 25.6948V27.5148H54.8993C54.6593 27.5148 54.4616 27.5935 54.3062 27.7507C54.1509 27.9079 54.0732 28.108 54.0732 28.351V28.4249C56.1796 27.715 57.6952 27.522 57.6952 27.522C57.6952 27.522 57.6105 28.1199 57.3705 29.0871C57.7447 28.9895 58.1377 28.8751 58.5448 28.7465C60.5665 26.4547 61.5926 24.4155 61.5926 24.4155C61.5926 24.4155 60.0087 24.0844 57.6882 24.082Z" fill="#106F31"/>
<path d="M57.6923 27.5156C57.6923 27.5156 56.1743 27.711 54.0703 28.4185V29.1451C54.0703 29.3571 54.1291 29.5358 54.2468 29.6811C54.8987 29.6049 56.0119 29.4333 57.3675 29.0784C57.6099 28.1136 57.6923 27.5156 57.6923 27.5156Z" fill="#155628"/>
<path d="M64.5037 42.9297C64.2919 43.2918 64.066 43.6491 63.8236 44.004C63.5882 44.3471 63.3411 44.6758 63.0869 44.9927H64.5367C65.0874 44.9927 65.3627 44.7616 65.3627 44.3018V44.1565C65.3651 43.8802 65.078 43.4728 64.5037 42.9297ZM76.6359 40.0781C75.3179 40.3402 74.0259 40.4402 72.8185 40.4402C71.5571 40.4402 70.3897 40.3306 69.3801 40.1806C69.7896 41.162 70.3686 42.0387 71.117 42.8082C71.5571 43.2608 72.0325 43.6539 72.5432 43.985C73.5622 42.7772 74.9343 41.3598 76.6359 40.0781Z" fill="#36A34F"/>
<path d="M74.46 37.4375C72.7655 37.8615 71.0992 38.0092 69.6001 38.0092C69.32 38.0092 69.0447 38.0045 68.7764 37.9949C68.8987 38.7739 69.1011 39.5029 69.3836 40.1795C70.3932 40.3295 71.5605 40.4391 72.822 40.4391C74.0293 40.4391 75.3214 40.3391 76.6393 40.077C76.7476 39.996 76.8558 39.915 76.9664 39.8364C76.5311 39.4791 76.1427 39.0241 75.7991 38.4738L76.9712 37.8067C76.3028 37.6733 75.4485 37.5304 74.46 37.4375Z" fill="#12692F"/>
<path d="M63.421 39.4512C60.3709 41.1044 58.1304 43.4486 56.8643 44.9899H63.0869C63.341 44.673 63.5858 44.3443 63.8235 44.0013C64.0659 43.6487 64.2918 43.289 64.5036 42.9269C64.4683 42.8935 64.4307 42.8578 64.393 42.8244C63.7458 42.2289 63.421 41.6166 63.421 40.9853V39.4512Z" fill="#1E9938"/>
<path d="M77.0979 39.9795C76.9426 40.0152 76.7873 40.0486 76.6343 40.0772C74.9327 41.3588 73.5606 42.7762 72.5439 43.984C72.591 44.015 72.6404 44.046 72.6875 44.0769C74.6244 42.7048 76.1165 41.1492 77.0979 39.9795Z" fill="#10672F"/>
<path d="M76.96 39.8408C76.8493 39.9194 76.7411 40.0004 76.6328 40.0814C76.7881 40.0505 76.9435 40.0171 77.0965 39.9838C77.1012 39.9766 77.1082 39.9695 77.1129 39.9647C77.0612 39.9242 77.0094 39.8837 76.96 39.8408Z" fill="#10672F"/>
<path d="M72.235 37.333C71.1336 37.333 69.9451 37.414 68.7236 37.6236C68.7378 37.7499 68.7566 37.8738 68.7754 37.9953C69.0437 38.0048 69.3191 38.0096 69.5991 38.0096C71.1006 38.0096 72.7645 37.8619 74.459 37.4378C73.7765 37.3759 73.0281 37.333 72.235 37.333Z" fill="#135728"/>
<path d="M47.1022 71.0927H45.7924V66.2465H40.466V71.0927H39.1562V60.7019H40.466V65.0969H45.7924V60.7019H47.1022V71.0927Z" fill="#343434"/>
<path d="M65.3547 71.0927H59.5481V60.7019H65.3547V61.8515H60.8578V65.0969H65.0927V66.232H60.8578V69.943H65.3547V71.0927Z" fill="#343434"/>
<path d="M83.7593 71.0927L82.5078 67.8765H78.3893L77.1523 71.0927H75.828L79.8882 60.6582H81.067L85.1128 71.0927H83.7593ZM80.9506 63.5688C80.9215 63.4912 80.873 63.3505 80.8051 63.1468C80.7372 62.943 80.6692 62.7344 80.6013 62.521C80.5431 62.2978 80.4946 62.1281 80.4558 62.0116C80.4073 62.2057 80.3539 62.4046 80.2957 62.6083C80.2472 62.8023 80.1938 62.9818 80.1356 63.1468C80.0871 63.3117 80.0435 63.4524 80.0047 63.5688L78.8259 66.7122H82.1148L80.9506 63.5688Z" fill="#343434"/>
<path d="M96.1391 71.0927V60.7019H97.4489V69.9285H101.989V71.0927H96.1391Z" fill="#343434"/>
<path d="M116.381 71.0927H115.071V61.8515H111.826V60.7019H119.611V61.8515H116.381V71.0927Z" fill="#343434"/>
<path d="M138.729 71.0927H137.419V66.2465H132.093V71.0927H130.783V60.7019H132.093V65.0969H137.419V60.7019H138.729V71.0927Z" fill="#343434"/>
<path d="M1 51.9209H176.867" stroke="#34A34F" stroke-width="1.33132" stroke-linecap="round"/>
</svg>
